<svg preserveAspectRatio="none" overflow="visible" style="display: block;" width="9.75" height="9.75" viewBox="0 0 9.75 9.75" fill="none" xmlns="http://www.w3.org/2000/svg">
<g id="Container">
<path id="Icon" d="M2.16667 7.58333H3.25V4.875H2.16667V7.58333V7.58333M6.5 7.58333H7.58333V2.16667H6.5V7.58333V7.58333M4.33333 7.58333H5.41667V5.95833H4.33333V7.58333V7.58333M4.33333 4.875H5.41667V3.79167H4.33333V4.875V4.875M1.08333 9.75C0.785417 9.75 0.530382 9.64392 0.318229 9.43177C0.106076 9.21962 0 8.96458 0 8.66667V1.08333C0 0.785417 0.106076 0.530382 0.318229 0.318229C0.530382 0.106076 0.785417 0 1.08333 0H8.66667C8.96458 0 9.21962 0.106076 9.43177 0.318229C9.64392 0.530382 9.75 0.785417 9.75 1.08333V8.66667C9.75 8.96458 9.64392 9.21962 9.43177 9.43177C9.21962 9.64392 8.96458 9.75 8.66667 9.75H1.08333V9.75M1.08333 8.66667H8.66667V8.66667V8.66667V1.08333V1.08333V1.08333H1.08333V1.08333V1.08333V8.66667V8.66667V8.66667V8.66667M1.08333 1.08333V1.08333V1.08333V1.08333V8.66667V8.66667V8.66667V8.66667V8.66667V8.66667V1.08333V1.08333V1.08333V1.08333" fill="#0D631B"/>
</g>
</svg>
