<svg preserveAspectRatio="none" overflow="visible" style="display: block;" width="13" height="9.20833" viewBox="0 0 13 9.20833" fill="none" xmlns="http://www.w3.org/2000/svg">
<g id="Container">
<path id="Icon" d="M6.5 9.20833C6.12083 9.20833 5.80035 9.07743 5.53854 8.81563C5.27674 8.55382 5.14583 8.23333 5.14583 7.85417C5.14583 7.475 5.27674 7.15451 5.53854 6.89271C5.80035 6.6309 6.12083 6.5 6.5 6.5C6.87917 6.5 7.19965 6.6309 7.46146 6.89271C7.72326 7.15451 7.85417 7.475 7.85417 7.85417C7.85417 8.23333 7.72326 8.55382 7.46146 8.81563C7.19965 9.07743 6.87917 9.20833 6.5 9.20833V9.20833M3.43958 6.14792L2.30208 4.98333C2.83472 4.45069 3.4599 4.02865 4.1776 3.71719C4.89531 3.40573 5.66944 3.25 6.5 3.25C7.33056 3.25 8.10469 3.40799 8.8224 3.72396C9.5401 4.03993 10.1653 4.46875 10.6979 5.01042L9.56042 6.14792C9.16319 5.75069 8.70278 5.43924 8.17917 5.21354C7.65556 4.98785 7.09583 4.875 6.5 4.875C5.90417 4.875 5.34444 4.98785 4.82083 5.21354C4.29722 5.43924 3.83681 5.75069 3.43958 6.14792V6.14792M1.1375 3.84583L0 2.70833C0.830556 1.85972 1.80104 1.19618 2.91146 0.717708C4.02187 0.239236 5.21806 0 6.5 0C7.78194 0 8.97813 0.239236 10.0885 0.717708C11.199 1.19618 12.1694 1.85972 13 2.70833L11.8625 3.84583C11.1674 3.15069 10.3616 2.60677 9.44531 2.21406C8.52899 1.82135 7.54722 1.625 6.5 1.625C5.45278 1.625 4.47101 1.82135 3.55469 2.21406C2.63837 2.60677 1.83264 3.15069 1.1375 3.84583V3.84583" fill="#707A6C"/>
</g>
</svg>
