<svg preserveAspectRatio="none" overflow="visible" style="display: block;" width="32" height="32" viewBox="0 0 32 32" fill="none" xmlns="http://www.w3.org/2000/svg">
<g id="Container" opacity="0">
<path id="Icon" d="M1 9C0.725 9 0.489583 8.90208 0.29375 8.70625C0.0979166 8.51042 0 8.275 0 8V1C0 0.725 0.0979166 0.489583 0.29375 0.29375C0.489583 0.0979166 0.725 0 1 0H4.5V1H1V1V1V8V8V8H8V8V8V4.5H9V8C9 8.275 8.90208 8.51042 8.70625 8.70625C8.51042 8.90208 8.275 9 8 9H1V9M3.35 6.35L2.65 5.65L7.3 1H5.5V0H9V3.5H8V1.7L3.35 6.35V6.35" fill="#707A6C"/>
</g>
</svg>
